<mxfile host="app.diagrams.net" modified="2023-12-22T11:51:02.839Z" agent="Mozilla/5.0 (Macintosh; Intel Mac OS X 10_15_7) AppleWebKit/537.36 (KHTML, like Gecko) Chrome/120.0.0.0 Safari/537.36" version="22.1.11" etag="Ah9cRf2C5aItcwqFm9N0" type="github">
  <diagram name="StrÃ¡nka-1" id="jBiYjAu6WwaiuolJjPSG">
    <mxGraphModel>
      <root>
        <mxCell id="0" />
        <mxCell id="1" parent="0" />
      </root>
    </mxGraphModel>
  </diagram>
</mxfile>
